<svg width="60" height="60" viewBox="0 0 60 60" fill="none" xmlns="http://www.w3.org/2000/svg">
<g clip-path="url(#clip0_28_670)">
<path d="M7.5 27.5H27.5V7.5H7.5V27.5ZM12.5 12.5H22.5V22.5H12.5V12.5Z" fill="black"/>
<path d="M7.5 52.5H27.5V32.5H7.5V52.5ZM12.5 37.5H22.5V47.5H12.5V37.5Z" fill="black"/>
<path d="M32.5 7.5V27.5H52.5V7.5H32.5ZM47.5 22.5H37.5V12.5H47.5V22.5Z" fill="black"/>
<path d="M52.5 47.5H47.5V52.5H52.5V47.5Z" fill="black"/>
<path d="M37.5 32.5H32.5V37.5H37.5V32.5Z" fill="black"/>
<path d="M42.5 37.5H37.5V42.5H42.5V37.5Z" fill="black"/>
<path d="M37.5 42.5H32.5V47.5H37.5V42.5Z" fill="black"/>
<path d="M42.5 47.5H37.5V52.5H42.5V47.5Z" fill="black"/>
<path d="M47.5 42.5H42.5V47.5H47.5V42.5Z" fill="black"/>
<path d="M47.5 32.5H42.5V37.5H47.5V32.5Z" fill="black"/>
<path d="M52.5 37.5H47.5V42.5H52.5V37.5Z" fill="black"/>
</g>
<defs>
<clipPath id="clip0_28_670">
<rect width="60" height="60" fill="white"/>
</clipPath>
</defs>
</svg>
